<?xml version="1.0" encoding="UTF-8"?><!DOCTYPE svg PUBLIC "-//W3C//DTD SVG 1.1//EN" "http://www.w3.org/Graphics/SVG/1.1/DTD/svg11.dtd"><svg xmlns="http://www.w3.org/2000/svg" xmlns:xlink="http://www.w3.org/1999/xlink"><defs><style/><style/><style/><style/></defs><symbol id="bars" viewBox="0 0 42 22"><path class="cls-1" d="M41 22H1a1 1 0 010-2h40a1 1 0 010 2zm0-9.84H1a1 1 0 010-2h40a1 1 0 010 2zM41 2H1a1 1 0 010-2h40a1 1 0 010 2z" id="SYMBOL-Navi"/></symbol><symbol id="caret-down" viewBox="0 0 297.3 168.6"><path class="st0" d="M20 0h257.3c17.8 0 26.7 21.5 14.1 34.1L162.8 162.8c-7.8 7.8-20.5 7.8-28.3 0L5.9 34.1C-6.7 21.5 2.2 0 20 0z"/></symbol><symbol id="close" viewBox="0 0 21.12 21.09"><g id="Schliessen_schwarz" data-name="Schliessen schwarz"><path class="cls-1" transform="rotate(-45 10.58 10.548)" d="M9.82-3.62h1.5V24.7h-1.5z"/><path class="cls-1" transform="rotate(-45 10.538 10.545)" d="M-3.62 9.79H24.7v1.5H-3.62z"/></g></symbol><symbol id="download" viewBox="0 0 512 512"><path d="M216 0h80c13.3 0 24 10.7 24 24v168h87.7c17.8 0 26.7 21.5 14.1 34.1L269.7 378.3c-7.5 7.5-19.8 7.5-27.3 0L90.1 226.1c-12.6-12.6-3.7-34.1 14.1-34.1H192V24c0-13.3 10.7-24 24-24zm296 376v112c0 13.3-10.7 24-24 24H24c-13.3 0-24-10.7-24-24V376c0-13.3 10.7-24 24-24h146.7l49 49c20.1 20.1 52.5 20.1 72.6 0l49-49H488c13.3 0 24 10.7 24 24zm-124 88c0-11-9-20-20-20s-20 9-20 20 9 20 20 20 20-9 20-20zm64 0c0-11-9-20-20-20s-20 9-20 20 9 20 20 20 20-9 20-20z"/></symbol><symbol id="mail" viewBox="0 0 512 384"><path class="cls-1" d="M502.3 126.8a6 6 0 019.7 4.7V336a48 48 0 01-48 48H48a48 48 0 01-48-48V131.6a6 6 0 019.7-4.7c22.4 17.4 52.1 39.5 154.1 113.6 21.1 15.4 56.7 47.8 92.2 47.6 35.7.3 72-32.8 92.3-47.6 102-74.1 131.6-96.3 154-113.7zM256 256c23.2.4 56.6-29.2 73.4-41.4 132.7-96.3 142.8-104.7 173.4-128.7A23.93 23.93 0 00512 67V48a48 48 0 00-48-48H48A48 48 0 000 48v19a24.08 24.08 0 009.2 18.9c30.6 23.9 40.7 32.4 173.4 128.7 16.8 12.2 50.2 41.8 73.4 41.4z"/></symbol><symbol id="phone" viewBox="0 0 512.01 512.01"><path class="cls-1" d="M493.41 24.61l-104-24a24.16 24.16 0 00-27.5 13.9l-48 112a23.94 23.94 0 006.9 28l60.6 49.6a370.61 370.61 0 01-177.2 177.2l-49.6-60.6a24 24 0 00-28-6.9l-112 48a24.29 24.29 0 00-14 27.6l24 104A24 24 0 0048 512c256.1 0 464-207.5 464-464a24 24 0 00-18.59-23.39z"/></symbol></svg>