<?xml version="1.0" encoding="UTF-8"?><!DOCTYPE svg PUBLIC "-//W3C//DTD SVG 1.1//EN" "http://www.w3.org/Graphics/SVG/1.1/DTD/svg11.dtd"><svg xmlns="http://www.w3.org/2000/svg" xmlns:xlink="http://www.w3.org/1999/xlink"><defs><style/><style/></defs><symbol id="bars" viewBox="0 0 42 22"><path class="cls-1" d="M41 22H1a1 1 0 0 1 0-2h40a1 1 0 0 1 0 2zm0-9.84H1a1 1 0 0 1 0-2h40a1 1 0 0 1 0 2zM41 2H1a1 1 0 0 1 0-2h40a1 1 0 0 1 0 2z" id="SYMBOL-Navi"/></symbol><symbol id="caret-down" viewBox="0 0 297.3 168.6"><path class="st0" d="M20 0h257.3c17.8 0 26.7 21.5 14.1 34.1L162.8 162.8c-7.8 7.8-20.5 7.8-28.3 0L5.9 34.1C-6.7 21.5 2.2 0 20 0z"/></symbol><symbol id="close" viewBox="0 0 21.12 21.09"><g id="Schliessen_schwarz" data-name="Schliessen schwarz"><path class="cls-1" transform="rotate(-45 10.58 10.548)" d="M9.82-3.62h1.5V24.7h-1.5z"/><path class="cls-1" transform="rotate(-45 10.538 10.545)" d="M-3.62 9.79H24.7v1.5H-3.62z"/></g></symbol><symbol id="download" viewBox="0 0 512 512"><path d="M216 0h80c13.3 0 24 10.7 24 24v168h87.7c17.8 0 26.7 21.5 14.1 34.1L269.7 378.3c-7.5 7.5-19.8 7.5-27.3 0L90.1 226.1c-12.6-12.6-3.7-34.1 14.1-34.1H192V24c0-13.3 10.7-24 24-24zm296 376v112c0 13.3-10.7 24-24 24H24c-13.3 0-24-10.7-24-24V376c0-13.3 10.7-24 24-24h146.7l49 49c20.1 20.1 52.5 20.1 72.6 0l49-49H488c13.3 0 24 10.7 24 24zm-124 88c0-11-9-20-20-20s-20 9-20 20 9 20 20 20 20-9 20-20zm64 0c0-11-9-20-20-20s-20 9-20 20 9 20 20 20 20-9 20-20z"/></symbol></svg>